<svg width="17" height="17" viewBox="0 0 17 17" fill="none" xmlns="http://www.w3.org/2000/svg">
<path fill-rule="evenodd" clip-rule="evenodd" d="M4.95768 1.23926C5.09858 1.23926 5.2337 1.29523 5.33333 1.39486C5.43296 1.49449 5.48893 1.62961 5.48893 1.77051V2.31097C5.95785 2.30176 6.47422 2.30176 7.04302 2.30176H9.95568C10.5245 2.30176 11.0408 2.30176 11.5098 2.31097V1.77051C11.5098 1.62961 11.5657 1.49449 11.6654 1.39486C11.765 1.29523 11.9001 1.23926 12.041 1.23926C12.1819 1.23926 12.317 1.29523 12.4167 1.39486C12.5163 1.49449 12.5723 1.62961 12.5723 1.77051V2.3563C12.7564 2.37047 12.9307 2.38817 13.0957 2.41013C13.9259 2.52205 14.5981 2.75722 15.1286 3.28705C15.6585 3.81759 15.8936 4.4898 16.0056 5.31997C16.041 5.58559 16.0651 5.8753 16.0814 6.19122C16.12 6.2957 16.1247 6.40973 16.0948 6.51705C16.1139 7.08442 16.1139 7.72972 16.1139 8.46001V9.95601C16.1139 11.2579 16.1139 12.2893 16.0056 13.096C15.8936 13.9262 15.6585 14.5984 15.1286 15.129C14.5981 15.6588 13.9259 15.894 13.0957 16.0059C12.2882 16.1143 11.2576 16.1143 9.95568 16.1143H7.04302C5.7411 16.1143 4.70977 16.1143 3.90297 16.0059C3.07281 15.894 2.4006 15.6588 1.87006 15.129C1.34022 14.5984 1.10506 13.9262 0.993141 13.096C0.884766 12.2885 0.884766 11.2579 0.884766 9.95601V8.46001C0.884766 7.72972 0.884766 7.08442 0.903891 6.51634C0.874332 6.40893 0.879288 6.29495 0.918057 6.19051C0.933641 5.8753 0.957724 5.58559 0.993141 5.31997C1.10506 4.4898 1.34022 3.81759 1.87006 3.28705C2.4006 2.75722 3.07281 2.52205 3.90297 2.41013C4.06802 2.38817 4.24297 2.37047 4.42643 2.3563V1.77051C4.42643 1.62961 4.4824 1.49449 4.58203 1.39486C4.68166 1.29523 4.81679 1.23926 4.95768 1.23926ZM1.95647 6.90592C1.94727 7.36847 1.94727 7.89476 1.94727 8.49967V9.91634C1.94727 11.2671 1.94868 12.2269 2.04643 12.9551C2.14206 13.667 2.32197 14.0778 2.6216 14.3774C2.92122 14.677 3.33206 14.857 4.04464 14.9526C4.77281 15.0503 5.73189 15.0518 7.08268 15.0518H9.91602C11.2668 15.0518 12.2266 15.0503 12.9548 14.9526C13.6666 14.857 14.0775 14.677 14.3771 14.3774C14.6767 14.0778 14.8566 13.667 14.9523 12.9544C15.05 12.2269 15.0514 11.2671 15.0514 9.91634V8.49967C15.0514 7.89476 15.0514 7.36847 15.0422 6.90592H1.95647ZM14.9933 5.84342H2.00535C2.01668 5.70884 2.03014 5.58205 2.04643 5.46092C2.14206 4.74905 2.32197 4.33822 2.6216 4.03859C2.92122 3.73897 3.33206 3.55905 4.04464 3.46342C4.77281 3.36567 5.73189 3.36426 7.08268 3.36426H9.91602C11.2668 3.36426 12.2266 3.36567 12.9548 3.46342C13.6666 3.55905 14.0775 3.73897 14.3771 4.03859C14.6767 4.33822 14.8566 4.74905 14.9523 5.46163C14.9686 5.58205 14.982 5.70955 14.9933 5.84342ZM11.3327 9.38509C11.4736 9.38509 11.6087 9.44106 11.7083 9.54069C11.808 9.64032 11.8639 9.77544 11.8639 9.91634V10.8018H12.7493C12.8902 10.8018 13.0254 10.8577 13.125 10.9574C13.2246 11.057 13.2806 11.1921 13.2806 11.333C13.2806 11.4739 13.2246 11.609 13.125 11.7087C13.0254 11.8083 12.8902 11.8643 12.7493 11.8643H11.8639V12.7497C11.8639 12.8906 11.808 13.0257 11.7083 13.1253C11.6087 13.225 11.4736 13.2809 11.3327 13.2809C11.1918 13.2809 11.0567 13.225 10.957 13.1253C10.8574 13.0257 10.8014 12.8906 10.8014 12.7497V11.8643H9.91602C9.77512 11.8643 9.63999 11.8083 9.54037 11.7087C9.44074 11.609 9.38477 11.4739 9.38477 11.333C9.38477 11.1921 9.44074 11.057 9.54037 10.9574C9.63999 10.8577 9.77512 10.8018 9.91602 10.8018H10.8014V9.91634C10.8014 9.77544 10.8574 9.64032 10.957 9.54069C11.0567 9.44106 11.1918 9.38509 11.3327 9.38509Z" fill="white"/>
</svg>
