<svg width="18" height="17" viewBox="0 0 18 17" fill="none" xmlns="http://www.w3.org/2000/svg">
<path d="M13.1061 1.41699C13.3619 1.41699 13.6152 1.46738 13.8516 1.56527C14.0879 1.66316 14.3026 1.80664 14.4835 1.98752C14.6644 2.1684 14.8079 2.38314 14.9058 2.61947C15.0037 2.85581 15.054 3.1091 15.054 3.36491V13.6357C15.054 13.8915 15.0037 14.1448 14.9058 14.3812C14.8079 14.6175 14.6644 14.8322 14.4835 15.0131C14.3026 15.194 14.0879 15.3375 13.8516 15.4354C13.6152 15.5333 13.3619 15.5837 13.1061 15.5837H5.66862C5.41276 15.5837 5.1594 15.5333 4.92302 15.4353C4.68664 15.3374 4.47187 15.1938 4.29098 15.0129C4.11009 14.8319 3.96663 14.6171 3.86878 14.3807C3.77093 14.1443 3.72061 13.8909 3.7207 13.635V3.36491C3.7207 2.47241 4.31995 1.72158 5.13737 1.48995V2.65658C4.92204 2.81808 4.7832 3.07449 4.7832 3.36491V13.6343C4.7832 14.1231 5.17987 14.5197 5.66862 14.5197H13.1061C13.5949 14.5197 13.9915 14.1231 13.9915 13.6343V3.36491C13.9915 2.87616 13.5949 2.47949 13.1061 2.47949H11.5124V1.41699H13.1061ZM10.804 1.41699V7.18212C10.804 7.71124 10.2374 7.90958 9.89029 7.72328L9.8322 7.68645L8.32629 6.77624L6.85437 7.66237C6.5002 7.91737 5.91229 7.76153 5.85066 7.26712L5.8457 7.18283V1.41699H10.804ZM9.74154 2.47949H6.9082V6.39162L8.02241 5.71941C8.11118 5.67222 8.20964 5.64613 8.31013 5.64318C8.41062 5.64024 8.51044 5.6605 8.60183 5.70241L9.74224 6.39233V2.47949H9.74154Z" fill="white"/>
</svg>
