<svg width="17" height="17" viewBox="0 0 17 17" fill="none" xmlns="http://www.w3.org/2000/svg">
<g clip-path="url(#clip0_1746_17233)">
<path d="M3.54232 2.02467H3.54244C3.95912 2.02518 4.31809 2.17465 4.6139 2.47046C4.90969 2.76625 5.05896 3.12498 5.05898 3.54122C5.05898 3.54126 5.05898 3.5413 5.05898 3.54134H4.95898L3.54232 2.02467ZM3.54232 2.02467C3.13695 2.02467 2.78164 2.17479 2.48066 2.46975M3.54232 2.02467L2.48066 2.46975M13.459 2.02467H13.4591C13.8758 2.02518 14.2348 2.17465 14.5306 2.47046C14.8264 2.76625 14.9756 3.12498 14.9757 3.54122C14.9757 3.54126 14.9757 3.5413 14.9757 3.54134H14.8757C14.8761 3.9314 14.7375 4.26502 14.4599 4.54222C14.1822 4.81941 13.8486 4.95801 13.459 4.95801V2.02467ZM13.459 2.02467C13.0426 2.02467 12.6838 2.17422 12.388 2.47052C12.0923 2.76673 11.9428 3.12541 11.9423 3.54122V3.54134C11.9423 3.95768 12.0919 4.31667 12.3881 4.61293C12.6844 4.90918 13.0432 5.05851 13.4591 5.05801L13.459 2.02467ZM2.48066 2.46975C2.17855 2.76582 2.02565 3.12477 2.02565 3.54134M2.48066 2.46975L2.02565 3.54134M2.02565 3.54134C2.02565 3.95834 2.17853 4.31755 2.48066 4.61364M2.02565 3.54134L2.48066 4.61364M2.48066 4.61364C2.78167 4.90863 3.13703 5.05851 3.54244 5.05801L2.48066 4.61364ZM10.8108 4.22368L10.7908 4.14967H10.7142H6.2694H6.19222L6.17266 4.22434C6.04726 4.70315 5.81133 5.11554 5.4641 5.46322C5.11695 5.81083 4.70463 6.04673 4.22542 6.17166L4.15065 6.19115V6.26842V10.7132V10.7899L4.22465 10.8098C4.81811 10.9696 5.30767 11.2883 5.69584 11.7678C6.08199 12.2448 6.27565 12.8066 6.27565 13.458C6.27565 14.2104 6.00891 14.8521 5.47265 15.3883C4.93639 15.9246 4.29475 16.1913 3.54232 16.1913C2.78988 16.1913 2.14824 15.9246 1.61199 15.3883C1.07573 14.8521 0.808984 14.2104 0.808984 13.458C0.808984 12.8066 1.00264 12.2448 1.38879 11.7678C1.77697 11.2883 2.26653 10.9696 2.85998 10.8098L2.93398 10.7899V10.7132V6.26842V6.19179L2.85998 6.17186C2.26653 6.01209 1.77697 5.69335 1.38879 5.21384C1.00237 4.7365 0.808984 4.18045 0.808984 3.54134C0.808984 2.78891 1.07573 2.14727 1.61199 1.61101C2.14824 1.07475 2.78988 0.808008 3.54232 0.808008C4.18142 0.808008 4.73747 1.0014 5.21481 1.38782C5.69432 1.77599 6.01306 2.26555 6.17284 2.85901L6.19276 2.93301H6.2694H10.7142H10.7908L10.8108 2.85901C10.9705 2.26555 11.2893 1.77599 11.7688 1.38782C12.2458 1.00167 12.8076 0.808008 13.459 0.808008C14.2114 0.808008 14.8531 1.07475 15.3893 1.61101C15.9256 2.14727 16.1923 2.78891 16.1923 3.54134C16.1923 4.29378 15.9256 4.93541 15.3893 5.47167C14.8531 6.00793 14.2114 6.27467 13.459 6.27467C12.8076 6.27467 12.2458 6.08101 11.7688 5.69487C11.2893 5.30669 10.9705 4.81713 10.8108 4.22368ZM3.54244 11.9413H3.54232L4.95898 13.458H5.05898C5.05898 13.458 5.05898 13.4579 5.05898 13.4579C5.05896 13.0416 4.90969 12.6829 4.6139 12.3871C4.31809 12.0913 3.95912 11.9418 3.54244 11.9413ZM13.4591 11.9413H13.459L14.8757 13.458H14.9757C14.9757 13.458 14.9757 13.4579 14.9757 13.4579C14.9756 13.0416 14.8264 12.6829 14.5306 12.3871C14.2348 12.0913 13.8758 11.9418 13.4591 11.9413ZM13.459 16.1913C12.7065 16.1913 12.0649 15.9246 11.5287 15.3883C10.9924 14.8521 10.7257 14.2104 10.7257 13.458C10.7257 12.7056 10.9924 12.0639 11.5287 11.5277C12.0649 10.9914 12.7065 10.7247 13.459 10.7247C14.2114 10.7247 14.8531 10.9914 15.3893 11.5277C15.9256 12.0639 16.1923 12.7056 16.1923 13.458C16.1923 14.2104 15.9256 14.8521 15.3893 15.3883C14.8531 15.9246 14.2114 16.1913 13.459 16.1913Z" fill="white" stroke="#111111" stroke-width="0.2"/>
</g>
<defs>
<clipPath id="clip0_1746_17233">
<rect width="17" height="17" fill="white"/>
</clipPath>
</defs>
</svg>
