<svg width="17" height="17" viewBox="0 0 17 17" fill="none" xmlns="http://www.w3.org/2000/svg">
<path d="M12.0417 13.8129C12.0417 12.6392 10.4557 11.6879 8.5 11.6879C6.54429 11.6879 4.95833 12.6392 4.95833 13.8129M14.875 11.6879C14.875 10.8167 14.0009 10.068 12.75 9.74M2.125 11.6879C2.125 10.8167 2.99908 10.068 4.25 9.74M12.75 6.89675C12.9599 6.71124 13.131 6.48606 13.2535 6.23418C13.376 5.9823 13.4475 5.70868 13.4639 5.42906C13.4803 5.14944 13.4412 4.86934 13.349 4.60487C13.2568 4.34039 13.1131 4.09677 12.9264 3.888C12.7397 3.67923 12.5135 3.50943 12.2609 3.38838C12.0083 3.26733 11.7343 3.19741 11.4546 3.18264C11.1749 3.16788 10.895 3.20855 10.6311 3.30233C10.3671 3.39611 10.1243 3.54114 9.91667 3.72909M4.25 6.89675C3.83371 6.52003 3.58343 5.99386 3.55383 5.4332C3.52423 4.87253 3.71771 4.32294 4.09201 3.90446C4.46632 3.48599 4.99102 3.23266 5.5515 3.1998C6.11198 3.16694 6.66269 3.35722 7.08333 3.72909M8.5 9.56292C7.93641 9.56292 7.39591 9.33904 6.9974 8.94052C6.59888 8.54201 6.375 8.00151 6.375 7.43792C6.375 6.87434 6.59888 6.33383 6.9974 5.93532C7.39591 5.5368 7.93641 5.31292 8.5 5.31292C9.06358 5.31292 9.60409 5.5368 10.0026 5.93532C10.4011 6.33383 10.625 6.87434 10.625 7.43792C10.625 8.00151 10.4011 8.54201 10.0026 8.94052C9.60409 9.33904 9.06358 9.56292 8.5 9.56292Z" stroke="white" stroke-linecap="round" stroke-linejoin="round"/>
</svg>
