<svg width="17" height="17" viewBox="0 0 17 17" fill="none" xmlns="http://www.w3.org/2000/svg">
<path d="M8.5 5.66634V7.79134M8.5 9.91634V9.92343M12.75 2.83301C13.3136 2.83301 13.8541 3.05689 14.2526 3.45541C14.6511 3.85392 14.875 4.39442 14.875 4.95801V10.6247C14.875 11.1883 14.6511 11.7288 14.2526 12.1273C13.8541 12.5258 13.3136 12.7497 12.75 12.7497H9.20833L5.66667 14.8747V12.7497H4.25C3.68641 12.7497 3.14591 12.5258 2.7474 12.1273C2.34888 11.7288 2.125 11.1883 2.125 10.6247V4.95801C2.125 4.39442 2.34888 3.85392 2.7474 3.45541C3.14591 3.05689 3.68641 2.83301 4.25 2.83301H12.75Z" stroke="white" stroke-linecap="round" stroke-linejoin="round"/>
</svg>
