<svg width="19" height="19" viewBox="0 0 19 19" fill="none" xmlns="http://www.w3.org/2000/svg">
<g clip-path="url(#clip0_1746_17245)">
<path fill-rule="evenodd" clip-rule="evenodd" d="M8.89649 2.21543C8.41041 2.27956 7.81033 2.41731 6.95691 2.61443L5.98395 2.83927C5.26353 3.00552 4.76637 3.1211 4.38716 3.25093C4.02062 3.37681 3.8132 3.50031 3.65724 3.65706C3.50049 3.81302 3.37699 4.02043 3.25112 4.38697C3.12128 4.76618 3.0057 5.26256 2.83945 5.98377L2.61462 6.95593C2.41749 7.81014 2.27974 8.41022 2.21562 8.89631C2.15228 9.36972 2.16733 9.69035 2.25124 9.98168C2.33437 10.273 2.49191 10.5525 2.79591 10.9206C3.10862 11.299 3.54324 11.7352 4.16312 12.3551L5.61187 13.8038C6.68774 14.8797 7.45328 15.6437 8.11195 16.1456C8.75637 16.638 9.2282 16.8225 9.70716 16.8225C10.1869 16.8225 10.658 16.638 11.3032 16.1456C11.961 15.6437 12.7274 14.8789 13.8032 13.8031C14.8799 12.7264 15.6439 11.9608 16.1466 11.303C16.6374 10.6578 16.8227 10.1867 16.8227 9.70697C16.8227 9.22802 16.6382 8.75697 16.1458 8.11177C15.6439 7.4531 14.8791 6.68677 13.8032 5.61089L12.3545 4.16214C11.7354 3.54306 11.2992 3.10843 10.9216 2.79572C10.5527 2.49172 10.2732 2.33418 9.98187 2.25106C9.69053 2.16714 9.36991 2.15289 8.89728 2.21543M8.74212 1.03822C9.30974 0.963016 9.8077 0.965391 10.3096 1.10947C10.8123 1.25356 11.2359 1.5156 11.6776 1.87977C12.1051 2.23285 12.5801 2.70785 13.1747 3.30239L14.6757 4.80339C15.7127 5.84047 16.5345 6.66222 17.0902 7.39214C17.6634 8.14185 18.011 8.86385 18.011 9.70697C18.011 10.5509 17.6634 11.2729 17.091 12.0226C16.5345 12.7525 15.7135 13.5743 14.6757 14.6113L14.6123 14.6747C13.5752 15.7118 12.7535 16.5335 12.0236 17.0893C11.2739 17.6624 10.5511 18.01 9.70795 18.01C8.86483 18.01 8.14283 17.6624 7.39233 17.0901C6.6632 16.5335 5.84145 15.7126 4.80358 14.6747L3.30337 13.1729C2.70962 12.5791 2.23383 12.1033 1.88074 11.6766C1.51658 11.2341 1.25453 10.8106 1.11045 10.3086C0.966367 9.80593 0.963992 9.30797 1.0392 8.74035C1.11124 8.19093 1.26324 7.53543 1.45166 6.71685L1.68916 5.68531C1.84749 5.0021 1.97574 4.44477 2.12853 4.00064C2.28845 3.53593 2.48874 3.14564 2.81808 2.81631C3.14741 2.48697 3.53849 2.28589 4.00241 2.12756C4.44653 1.97397 5.00387 1.84572 5.68708 1.68818L6.71862 1.45068C7.5372 1.26068 8.1927 1.11027 8.74212 1.03743M7.51266 6.32893C7.32705 6.14333 7.07531 6.03905 6.81283 6.03905C6.55034 6.03905 6.2986 6.14333 6.11299 6.32893C5.92738 6.51454 5.82311 6.76628 5.82311 7.02877C5.82311 7.29125 5.92738 7.54299 6.11299 7.7286C6.2049 7.8205 6.314 7.8934 6.43408 7.94314C6.55416 7.99288 6.68285 8.01848 6.81283 8.01848C6.9428 8.01848 7.0715 7.99288 7.19157 7.94314C7.31165 7.8934 7.42076 7.8205 7.51266 7.7286C7.60456 7.6367 7.67746 7.52759 7.7272 7.40751C7.77694 7.28744 7.80254 7.15874 7.80254 7.02877C7.80254 6.89879 7.77694 6.7701 7.7272 6.65002C7.67746 6.52994 7.60456 6.42084 7.51266 6.32893ZM5.27303 5.48977C5.68131 5.08139 6.23509 4.85192 6.81255 4.85185C7.39001 4.85177 7.94384 5.0811 8.35222 5.48937C8.7606 5.89764 8.99007 6.45142 8.99014 7.02888C8.99021 7.60634 8.76089 8.16018 8.35262 8.56856C7.94424 8.97694 7.39036 9.20636 6.81283 9.20636C6.23529 9.20636 5.68141 8.97694 5.27303 8.56856C4.86466 8.16018 4.63523 7.6063 4.63523 7.02877C4.63523 6.45123 4.86466 5.89814 5.27303 5.48977ZM10.2843 9.58347C10.1013 9.59045 9.92833 9.66924 9.80295 9.80277C9.49578 10.1099 9.57653 10.4163 9.66283 10.5026C9.74991 10.5889 10.0563 10.6688 10.3627 10.3625C10.9833 9.74181 12.0552 9.53597 12.7416 10.2223C13.2744 10.7551 13.2705 11.5199 12.9514 12.1255C13.0299 12.2396 13.066 12.3776 13.0535 12.5155C13.0411 12.6534 12.9808 12.7827 12.8831 12.8808C12.7854 12.979 12.6564 13.0399 12.5186 13.0531C12.3807 13.0662 12.2426 13.0307 12.1281 12.9528C11.7728 13.1476 11.3607 13.2125 10.9627 13.1365C10.8863 13.1208 10.8138 13.0902 10.7492 13.0464C10.6846 13.0027 10.6292 12.9467 10.5863 12.8815C10.5434 12.8164 10.5137 12.7434 10.499 12.6668C10.4842 12.5902 10.4847 12.5115 10.5004 12.4351C10.5161 12.3586 10.5467 12.2861 10.5904 12.2215C10.6342 12.1569 10.6902 12.1016 10.7554 12.0586C10.8205 12.0157 10.8934 11.986 10.9701 11.9713C11.0467 11.9565 11.1254 11.957 11.2018 11.9727C11.342 12.002 11.5684 11.9569 11.7623 11.7621C12.0687 11.455 11.9887 11.1486 11.9025 11.0623C11.8154 10.976 11.509 10.8961 11.2026 11.2024C10.582 11.8231 9.51003 12.0289 8.82366 11.3426C8.29087 10.8098 8.29483 10.045 8.61387 9.43939C8.53538 9.32528 8.49926 9.18733 8.51174 9.0494C8.52422 8.91147 8.58453 8.78224 8.68222 8.68407C8.77992 8.58591 8.90885 8.52499 9.04672 8.51184C9.18459 8.4987 9.32272 8.53416 9.4372 8.6121C9.70637 8.46881 10.0017 8.39281 10.2962 8.39597C10.4536 8.39744 10.6041 8.46141 10.7144 8.5738C10.8247 8.68619 10.8858 8.83779 10.8844 8.99527C10.8829 9.15274 10.8189 9.30318 10.7065 9.41349C10.5942 9.5238 10.4418 9.58494 10.2843 9.58347Z" fill="white"/>
</g>
<defs>
<clipPath id="clip0_1746_17245">
<rect width="19" height="19" fill="white"/>
</clipPath>
</defs>
</svg>
