<svg width="18" height="17" viewBox="0 0 18 17" fill="none" xmlns="http://www.w3.org/2000/svg">
<path d="M9.01172 4.25L10.0275 6.21722L12.1992 6.53278L10.6055 7.96875L11.1367 10.0938L9.01172 8.89844L6.88672 10.0938L7.41797 7.96875L5.82422 6.53278L8.05547 6.21722L9.01172 4.25Z" fill="white"/>
<path d="M9.93397 15.9375L9.01172 15.4062L11.1367 11.6875H14.3242C14.4638 11.6877 14.6021 11.6604 14.7311 11.607C14.8601 11.5537 14.9773 11.4755 15.076 11.3768C15.1747 11.2781 15.2529 11.1609 15.3063 11.0318C15.3596 10.9028 15.3869 10.7646 15.3867 10.625V4.25C15.3869 4.11041 15.3596 3.97215 15.3063 3.84315C15.2529 3.71415 15.1747 3.59694 15.076 3.49823C14.9773 3.39953 14.8601 3.32127 14.7311 3.26795C14.6021 3.21463 14.4638 3.18729 14.3242 3.1875H3.69922C3.55963 3.18729 3.42137 3.21463 3.29237 3.26795C3.16337 3.32127 3.04615 3.39953 2.94745 3.49823C2.84875 3.59694 2.77049 3.71415 2.71717 3.84315C2.66385 3.97215 2.63651 4.11041 2.63672 4.25V10.625C2.63651 10.7646 2.66385 10.9028 2.71717 11.0318C2.77049 11.1609 2.84875 11.2781 2.94745 11.3768C3.04615 11.4755 3.16337 11.5537 3.29237 11.607C3.42137 11.6604 3.55963 11.6877 3.69922 11.6875H8.48047V12.75H3.69922C3.13563 12.75 2.59513 12.5261 2.19662 12.1276C1.7981 11.7291 1.57422 11.1886 1.57422 10.625V4.25C1.57415 3.97092 1.62907 3.69456 1.73583 3.43672C1.8426 3.17887 1.99912 2.94458 2.19646 2.74724C2.3938 2.5499 2.62809 2.39338 2.88593 2.28661C3.14378 2.17985 3.42014 2.12493 3.69922 2.125H14.3242C14.6033 2.12493 14.8797 2.17985 15.1375 2.28661C15.3954 2.39338 15.6296 2.5499 15.827 2.74724C16.0243 2.94458 16.1808 3.17887 16.2876 3.43672C16.3944 3.69456 16.4493 3.97092 16.4492 4.25V10.625C16.4492 11.1886 16.2253 11.7291 15.8268 12.1276C15.4283 12.5261 14.8878 12.75 14.3242 12.75H11.7556L9.93397 15.9375Z" fill="white"/>
</svg>
