<svg width="22" height="21" viewBox="0 0 22 21" fill="none" xmlns="http://www.w3.org/2000/svg">
<path d="M8.18947 13.4951C8.55872 13.4951 8.86964 13.3685 9.12222 13.1154C9.37539 12.8628 9.50197 12.5519 9.50197 12.1826C9.50197 11.8134 9.37539 11.5025 9.12222 11.2499C8.86964 10.9967 8.55872 10.8701 8.18947 10.8701C7.82022 10.8701 7.5093 10.9967 7.25672 11.2499C7.00355 11.5025 6.87697 11.8134 6.87697 12.1826C6.87697 12.5519 7.00355 12.8628 7.25672 13.1154C7.5093 13.3685 7.82022 13.4951 8.18947 13.4951ZM14.584 13.4951C14.9532 13.4951 15.2641 13.3685 15.5167 13.1154C15.7699 12.8628 15.8965 12.5519 15.8965 12.1826C15.8965 11.8134 15.7699 11.5025 15.5167 11.2499C15.2641 10.9967 14.9532 10.8701 14.584 10.8701C14.2147 10.8701 13.9038 10.9967 13.6512 11.2499C13.3981 11.5025 13.2715 11.8134 13.2715 12.1826C13.2715 12.5519 13.3981 12.8628 13.6512 13.1154C13.9038 13.3685 14.2147 13.4951 14.584 13.4951ZM11.3867 8.41313C11.756 8.41313 12.0669 8.28683 12.3195 8.03425C12.5726 7.78108 12.6992 7.46987 12.6992 7.10063C12.6992 6.73196 12.5726 6.42104 12.3195 6.16787C12.0669 5.91471 11.756 5.78812 11.3867 5.78812C11.0175 5.78812 10.7066 5.91471 10.454 6.16787C10.2008 6.42104 10.0742 6.73196 10.0742 7.10063C10.0742 7.46987 10.2008 7.78108 10.454 8.03425C10.7066 8.28683 11.0175 8.41313 11.3867 8.41313ZM11.3893 18.375C10.3008 18.375 9.27709 18.1685 8.31809 17.7555C7.35968 17.3419 6.5258 16.7808 5.81647 16.072C5.10714 15.3638 4.54568 14.5308 4.13209 13.573C3.71851 12.6152 3.51172 11.5917 3.51172 10.5026C3.51172 9.41413 3.71822 8.39038 4.13122 7.43138C4.5448 6.47296 5.10597 5.63908 5.81472 4.92975C6.52289 4.22042 7.35589 3.65896 8.31372 3.24538C9.27155 2.83179 10.295 2.625 11.3841 2.625C12.4726 2.625 13.4963 2.8315 14.4553 3.2445C15.4138 3.65808 16.2476 4.21925 16.957 4.928C17.6663 5.63617 18.2278 6.46917 18.6413 7.427C19.0549 8.38483 19.2617 9.40829 19.2617 10.4974C19.2617 11.5859 19.0552 12.6096 18.6422 13.5686C18.2286 14.527 17.6675 15.3609 16.9587 16.0702C16.2506 16.7796 15.4176 17.341 14.4597 17.7546C13.5019 18.1682 12.4784 18.375 11.3893 18.375ZM11.3867 17.5C13.3409 17.5 14.9961 16.8219 16.3523 15.4656C17.7086 14.1094 18.3867 12.4542 18.3867 10.5C18.3867 8.54583 17.7086 6.89062 16.3523 5.53437C14.9961 4.17812 13.3409 3.5 11.3867 3.5C9.43255 3.5 7.77734 4.17812 6.42109 5.53437C5.06484 6.89062 4.38672 8.54583 4.38672 10.5C4.38672 12.4542 5.06484 14.1094 6.42109 15.4656C7.77734 16.8219 9.43255 17.5 11.3867 17.5Z" fill="white"/>
</svg>
