<svg width="17" height="17" viewBox="0 0 17 17" fill="none" xmlns="http://www.w3.org/2000/svg">
<path d="M10.625 13.458C10.625 11.8926 8.72242 10.6247 6.375 10.6247C4.02758 10.6247 2.125 11.8926 2.125 13.458M13.4583 11.333V9.20801M13.4583 9.20801V7.08301M13.4583 9.20801H11.3333M13.4583 9.20801H15.5833M6.375 8.49967C5.62355 8.49967 4.90288 8.20116 4.37153 7.66981C3.84018 7.13846 3.54167 6.41779 3.54167 5.66634C3.54167 4.91489 3.84018 4.19422 4.37153 3.66287C4.90288 3.13152 5.62355 2.83301 6.375 2.83301C7.12645 2.83301 7.84712 3.13152 8.37847 3.66287C8.90982 4.19422 9.20833 4.91489 9.20833 5.66634C9.20833 6.41779 8.90982 7.13846 8.37847 7.66981C7.84712 8.20116 7.12645 8.49967 6.375 8.49967Z" stroke="white" stroke-linecap="round" stroke-linejoin="round"/>
</svg>
