<svg width="17" height="17" viewBox="0 0 17 17" fill="none" xmlns="http://www.w3.org/2000/svg">
<path d="M1.41602 8.49967C1.41602 5.82855 1.41602 4.49263 2.24618 3.66317C3.07564 2.83301 4.41156 2.83301 7.08268 2.83301H9.91602C12.5871 2.83301 13.9231 2.83301 14.7525 3.66317C15.5827 4.49263 15.5827 5.82855 15.5827 8.49967C15.5827 11.1708 15.5827 12.5067 14.7525 13.3362C13.9231 14.1663 12.5871 14.1663 9.91602 14.1663H7.08268C4.41156 14.1663 3.07564 14.1663 2.24618 13.3362C1.41602 12.5067 1.41602 11.1708 1.41602 8.49967Z" stroke="white" stroke-width="1.0625"/>
<path d="M7.08268 11.333H4.24935M9.91602 11.333H8.85352M1.41602 7.08301H15.5827" stroke="white" stroke-width="1.0625" stroke-linecap="round"/>
</svg>
