<svg width="19" height="20" viewBox="0 0 19 20" fill="none" xmlns="http://www.w3.org/2000/svg">
<path d="M9.10482 14.5835H9.2869L11.6168 10.2568H9.89648V7.0835H9.7144L7.38453 11.4102H9.10482V14.5835ZM9.49748 17.5002C7.91521 17.5002 6.59682 16.9271 5.54232 15.781C4.48676 14.6343 3.95898 13.2074 3.95898 11.5002C3.95898 10.3035 4.41762 8.98017 5.3349 7.53017C6.25218 6.08017 7.64076 4.48906 9.50065 2.75684C11.3611 4.4885 12.7497 6.07961 13.6664 7.53017C14.5837 8.98017 15.0423 10.3035 15.0423 11.5002C15.0423 13.2074 14.5137 14.6343 13.4566 15.781C12.4 16.9271 11.0798 17.5002 9.49748 17.5002ZM9.50065 16.6668C10.8729 16.6668 12.0076 16.1771 12.9048 15.1977C13.802 14.2182 14.2507 12.9857 14.2507 11.5002C14.2507 10.4863 13.8514 9.34045 13.0529 8.06267C12.2543 6.78489 11.0703 5.38906 9.50065 3.87517C7.93051 5.38906 6.74644 6.78489 5.94844 8.06267C5.15044 9.34045 4.75118 10.4863 4.75065 11.5002C4.75065 12.9863 5.19926 14.2191 6.09648 15.1985C6.99371 16.1779 8.12843 16.6674 9.50065 16.6668Z" fill="white"/>
</svg>
