<svg width="56" height="55" viewBox="0 0 56 55" fill="none" xmlns="http://www.w3.org/2000/svg">
<path d="M55.2207 27.5771C55.2207 33.8714 53.0383 39.971 49.0452 44.8365C45.0522 49.702 39.4956 53.0325 33.3223 54.2604C27.149 55.4884 20.7409 54.5378 15.1898 51.5707C9.63876 48.6037 5.28824 43.8036 2.87953 37.9885C0.470821 32.1733 0.152949 25.7029 1.98008 19.6796C3.8072 13.6564 7.66628 8.45305 12.8998 4.95614C18.1333 1.45924 24.4173 -0.114847 30.6813 0.502098C36.9453 1.11904 42.8015 3.88884 47.2522 8.33956L43.8656 11.7261C40.1984 8.05894 35.3731 5.77673 30.2119 5.2684C25.0506 4.76006 19.8728 6.05704 15.5606 8.93835C11.2484 11.8197 8.06869 16.107 6.56321 21.0699C5.05773 26.0328 5.31964 31.3642 7.30432 36.1556C9.289 40.9471 12.8737 44.9021 17.4475 47.3469C22.0213 49.7917 27.3014 50.5749 32.3879 49.5631C37.4745 48.5513 42.0529 45.8072 45.343 41.7981C48.6331 37.7891 50.4313 32.7634 50.4313 27.5771H55.2207Z" fill="#111111"/>
<g opacity="0.6">
<path d="M22.0156 23.8242H26.0156" stroke="black" stroke-width="1.5" stroke-linecap="round" stroke-linejoin="round"/>
<path d="M38.0156 26.3242C38.0156 26.2472 38.0156 25.7912 38.0136 25.7592C37.9776 25.2582 37.5486 24.8592 37.0086 24.8262C36.9746 24.8242 36.9336 24.8242 36.8496 24.8242H34.2476C32.4616 24.8242 31.0156 26.1672 31.0156 27.8242C31.0156 29.4812 32.4626 30.8242 34.2456 30.8242H36.8486C36.9326 30.8242 36.9736 30.8242 37.0086 30.8222C37.5486 30.7892 37.9786 30.3902 38.0136 29.8892C38.0156 29.8572 38.0156 29.4012 38.0156 29.3242" stroke="black" stroke-width="1.5" stroke-linecap="round"/>
<path d="M34.0156 28.8242C34.5679 28.8242 35.0156 28.3765 35.0156 27.8242C35.0156 27.2719 34.5679 26.8242 34.0156 26.8242C33.4633 26.8242 33.0156 27.2719 33.0156 27.8242C33.0156 28.3765 33.4633 28.8242 34.0156 28.8242Z" fill="black"/>
<path d="M29.0156 19.8242C32.7866 19.8242 34.6726 19.8242 35.8436 20.9962C36.6526 21.8042 36.9036 22.9522 36.9806 24.8242M26.0156 35.8242H29.0156C32.7866 35.8242 34.6726 35.8242 35.8436 34.6522C36.6526 33.8442 36.9036 32.6962 36.9806 30.8242M25.0156 19.8242C21.9016 19.8342 20.2506 19.9322 19.1876 20.9962C18.0156 22.1672 18.0156 24.0532 18.0156 27.8242C18.0156 31.5952 18.0156 33.4812 19.1876 34.6522C19.8406 35.3062 20.7156 35.5952 22.0156 35.7222" stroke="black" stroke-width="1.5" stroke-linecap="round"/>
</g>
</svg>